<?xml version="1.0" encoding="UTF-8" standalone="no"?>
<!DOCTYPE svg PUBLIC "-//W3C//DTD SVG 1.1//EN" "http://www.w3.org/Graphics/SVG/1.1/DTD/svg11.dtd">
<svg width="100%" height="100%" viewBox="0 0 708 448" version="1.1" xmlns="http://www.w3.org/2000/svg" xmlns:xlink="http://www.w3.org/1999/xlink" xml:space="preserve" style="fill-rule:evenodd;clip-rule:evenodd;stroke-linejoin:round;stroke-miterlimit:1.41421;">
    <g id="g4297" transform="matrix(0.699299,0,0,0.699299,3.3007,1.15451)">
        <g transform="matrix(1.43,0,0,1.43,-4.72002,-1.65096)">
            <path d="M708,30.028C708,13.455 694.545,0 677.972,0L30.028,0C13.455,0 0,13.455 0,30.028L0,417.083C0,433.656 13.455,447.111 30.028,447.111L677.972,447.111C694.545,447.111 708,433.656 708,417.083L708,30.028Z" style="fill:rgb(45,91,153);"/>
        </g>
        <g transform="matrix(1.43,0,0,1.43,-63.7447,-4.79906)">
            <text x="230.98px" y="70.364px" style="font-family:'Kefa-Regular', 'Kefa';font-size:42.59px;fill:white;stroke-width:1px;stroke:white;">B<tspan x="255.895px 275.923px 295.889px 313.484px 336.341px 357.097px 373.132px 392.786px 402px 425.189px 445.218px 463.437px 474.398px 499.895px 518.114px 527.328px 556.86px 577.617px 595.212px 617.34px 628.301px 643.276px 663.304px 674.162px 685.123px 700.097px " y="70.364px 70.364px 70.364px 70.364px 70.364px 70.364px 70.364px 70.364px 70.364px 70.364px 70.364px 70.364px 70.364px 70.364px 70.364px 70.364px 70.364px 70.364px 70.364px 70.364px 70.364px 70.364px 70.364px 70.364px 70.364px 70.364px ">ayshore Paciﬁc Hospitality</tspan></text>
        </g>
        <g id="_-fdfdfcff">
            <path id="path72" d="M106.55,191.95C106.77,180.99 117.15,171.78 127.97,172.18C164.57,172.27 201.18,171.95 237.78,172.27C246.49,172.26 253.76,179.11 256.37,187.07C256.34,187.52 256.27,188.42 256.24,188.87C248.39,189.63 240.47,189.26 232.62,190.14L237.21,194.19C230.98,200.61 224.32,206.6 217.94,212.86C217.96,214.6 217.97,216.35 217.99,218.1C215.23,217.96 212.48,217.78 209.74,217.53C207.54,221.58 205.92,226.04 202.81,229.51C194.95,236.75 186.25,243.11 179.09,251.11C172.95,257.33 167.64,264.53 160.41,269.57C157.48,262.69 155.36,255.4 155.06,247.89C156.67,244.25 159.88,241.56 161.52,237.96C161.71,234.84 161.51,231.71 161.43,228.6C160.18,231.58 159.94,234.85 158.88,237.9C157.04,241.05 154.63,243.85 152.74,246.99C137.51,247.01 122.27,247.01 107.03,247.23C105.93,228.82 106.92,210.38 106.55,191.95Z" style="fill:rgb(253,253,252);fill-rule:nonzero;"/>
            <path id="path74" d="M106.55,249.07C121.87,249.03 137.2,249.55 152.53,249.39C151.82,260.26 155.97,271.42 164.24,278.64C145.36,273.67 125.73,276.48 106.48,275.93C106.5,266.97 106.51,258.02 106.55,249.07L106.55,249.07Z" style="fill:rgb(253,253,252);fill-rule:nonzero;"/>
            <path id="path76" d="M106.17,279.52C122.36,279.46 138.57,279.16 154.74,280.18L153.63,280.94C148.21,285.43 139.72,285.38 136.12,292.04C138.95,293.34 141.77,294.71 144.68,295.86C136.86,296.71 128.79,297.22 121.05,295.54C113.44,293.58 108.88,286.39 106.17,279.52L106.17,279.52Z" style="fill:rgb(253,253,252);fill-rule:nonzero;"/>
            <path id="path78" d="M734.21,347.63C741.66,348.23 749.16,347.93 756.63,348.36C756.83,349.25 757.23,351.02 757.44,351.91C751.14,353.5 744.56,352.08 738.15,352.44C737.43,358.79 739.49,366.19 735.04,371.53C734.75,369.95 734.49,368.39 734.32,366.81C733.83,360.43 734.15,354.02 734.21,347.63L734.21,347.63Z" style="fill:rgb(253,253,252);fill-rule:nonzero;"/>
            <path id="path80" d="M773.48,346.75C774.5,347.47 775.5,348.2 776.52,348.96C777.08,355.98 778.12,363.92 773.54,369.93C772.76,362.23 772.8,354.45 773.48,346.75L773.48,346.75Z" style="fill:rgb(253,253,252);fill-rule:nonzero;"/>
            <path id="path82" d="M227.27,379.42C227.65,368.71 227.43,358 227.52,347.28C228.97,347.93 230.43,348.6 231.89,349.25C231.77,357.65 231.74,366.05 231.68,374.44C236.28,374.69 240.88,374.52 245.48,374.57C246.61,367.01 245.02,359.11 247.74,351.79C250.34,358.57 249.22,366.14 249.51,373.27C251.04,374.47 252.56,375.7 254.07,376.94C252.78,378.27 251.49,379.6 250.22,380.95C250.39,386.15 250.37,391.35 250.1,396.54C248.43,395.76 246.48,394.89 246.01,392.92C244.71,388.53 246.24,383.94 245.56,379.48C239.46,379.56 233.36,379.48 227.27,379.42L227.27,379.42Z" style="fill:rgb(253,253,252);fill-rule:nonzero;"/>
            <path id="path84" d="M315.03,348.43C322.32,348.53 329.62,348.51 336.91,348.48C336.9,349.96 336.9,351.44 336.9,352.93C330.6,352.51 324.28,352.64 317.97,352.79C317.96,358.41 318.31,364.04 319.13,369.6C324.88,369.43 330.62,369.75 336.37,369.87C338.17,378.08 338.05,386.64 336.58,394.89C329.72,395.29 322.73,396.33 315.93,394.97C311.74,394.16 308.51,390.97 306.94,387.11C315.18,390.41 324.2,391.18 332.97,390.11C332.94,384.78 332.91,379.45 332.84,374.12C326.79,374.07 320.73,374.17 314.68,374.14C315.11,365.57 314.89,357 315.03,348.43L315.03,348.43Z" style="fill:rgb(253,253,252);fill-rule:nonzero;"/>
            <path id="path86" d="M350.41,348.19C353.06,348.44 355.7,348.73 358.34,349.08C357.08,350.78 355.81,352.47 354.53,354.17C354.54,360.94 354.7,367.7 354.71,374.48C363.09,374.54 371.51,374.12 379.84,375.32C379.59,381.93 379.69,388.56 379.25,395.16C369.78,395.04 360.3,395.76 350.84,394.98C348.92,379.43 351.02,363.79 350.41,348.19M354.66,379.53C354.71,383.2 354.78,386.87 355.06,390.53C361.63,390.44 368.21,390.54 374.79,390.29C374.86,386.69 374.75,383.09 374.57,379.49C367.93,379.53 361.29,379.49 354.66,379.53L354.66,379.53Z" style="fill:rgb(253,253,252);fill-rule:nonzero;"/>
            <path id="path88" d="M440.31,348.42C445.9,348.5 451.49,348.45 457.07,348.82C456.77,355.76 456.94,362.71 457.13,369.66C459.17,369.85 461.21,370.05 463.26,370.26C463.83,378.51 463.85,386.92 461.5,394.92C453.48,394.71 445.47,394.82 437.45,394.72C436.34,393.7 435.22,392.69 434.1,391.69C433.9,384.64 433.23,377.52 434.5,370.53C436.34,369.75 438.17,368.96 440.01,368.16C440.35,361.59 440.39,355 440.31,348.42M444.5,352.52C444.5,358.22 444.72,363.91 445.01,369.6C447.4,369.46 449.8,369.31 452.19,369.15C452.53,363.78 452.52,358.39 452.94,353.02C450.12,352.81 447.31,352.64 444.5,352.52M438.6,374.22C438.55,379.76 438.52,385.3 438.47,390.85C445.3,390.87 452.13,390.86 458.97,390.81C458.88,385.3 458.47,379.8 458.47,374.29C451.85,374.28 445.22,374.13 438.6,374.22Z" style="fill:rgb(253,253,252);fill-rule:nonzero;"/>
            <path id="path90" d="M517.99,347.62C527.39,349.16 536.93,349.08 546.43,348.93C546.87,361.7 547.78,374.58 545.9,387.28C544.86,385.79 543.83,384.3 542.93,382.73C542.51,378.03 542.45,373.3 542.32,368.59C534.36,368.97 526.38,369.11 518.42,368.66C517.81,361.66 518.02,354.64 517.99,347.62M522.01,352.75C522.04,356.47 522.11,360.19 522.22,363.92C528.93,363.86 535.7,364.46 542.37,363.44C542.73,359.89 542.99,356.34 543.04,352.78C536.03,352.67 529.02,352.64 522.01,352.75Z" style="fill:rgb(253,253,252);fill-rule:nonzero;"/>
            <path id="path92" d="M566.42,348C571.84,348.38 577.27,348.54 582.71,348.49C582.78,355.42 582.15,362.46 583.97,369.24C585.72,369.62 587.46,370 589.21,370.39L589.19,370.99C589,374.87 588.95,378.77 588.32,382.62C587.69,382.62 586.45,382.61 585.82,382.61C585.36,379.76 585.16,376.89 584.89,374.03C579.15,374.11 573.4,373.64 567.66,374.2C567.03,374.18 565.78,374.16 565.15,374.15C564.7,377.73 564.27,381.32 564.25,384.94C562.79,385.67 561.32,386.41 559.87,387.15C560.04,381.64 559.92,376.13 560.53,370.65C562.45,369.64 564.39,368.66 566.35,367.73C566.53,361.15 566.48,354.57 566.42,348M570.07,353.08C570.78,358.56 571.03,364.08 571.52,369.58C573.68,369.45 575.85,369.32 578.01,369.15C578.48,363.64 578.53,358.11 578.49,352.58C575.68,352.74 572.88,352.92 570.07,353.08L570.07,353.08Z" style="fill:rgb(253,253,252);fill-rule:nonzero;"/>
            <path id="path94" d="M601.89,347.69C611.45,348.78 621.08,348.47 630.68,348.35C631.19,354.5 632.18,360.75 631.19,366.89C629.18,372.05 623.48,373.98 619.88,377.75C618.1,379.68 616.49,381.77 615.04,383.96C614.88,380.9 614.78,377.85 614.65,374.79C618.46,371.21 623.02,368.35 626.14,364.09C627.11,360.45 626.63,356.56 626.81,352.82C618.76,352.65 610.11,351.45 602.8,355.68C602.48,353.02 602.17,350.36 601.89,347.69L601.89,347.69Z" style="fill:rgb(253,253,252);fill-rule:nonzero;"/>
            <path id="path96" d="M644,347.37C646.81,347.88 649.62,348.44 652.42,349.07C651.09,351.27 648.6,353.13 648.76,355.92C648.77,362.1 648.76,368.29 648.68,374.47C657.41,374.61 666.35,373.81 674.82,376.45C673.5,376.95 672.21,377.5 670.86,377.87C670.26,377.96 669.08,378.16 668.48,378.26C662.21,379.02 655.89,378.35 649.61,378.71L648.89,379.02C647.36,379.72 645.86,380.43 644.35,381.13C643.68,369.89 644.08,358.63 644,347.37L644,347.37Z" style="fill:rgb(253,253,252);fill-rule:nonzero;"/>
            <path id="path98" d="M811.19,347.67C821.12,347.73 831.12,347.45 840.99,348.88C841.05,353.89 841.04,358.89 841.15,363.9C840.2,364.56 839.26,365.22 838.33,365.89C838.05,363.28 837.53,360.71 836.75,358.21C836.46,356.36 836.72,354.47 836.74,352.61C828.91,352.65 820.97,353.76 813.24,351.99C812.56,350.54 811.86,349.1 811.19,347.67L811.19,347.67Z" style="fill:rgb(253,253,252);fill-rule:nonzero;"/>
            <path id="path100" d="M853.05,347.66C862.86,347.72 872.68,347.6 882.45,348.68C882.88,353.73 883.06,358.81 883.06,363.88C881.72,364.84 880.39,365.81 879.06,366.76C878.92,362.08 878.7,357.39 878.44,352.71C870.62,352.72 862.75,353.58 855.01,352.13C854.36,350.64 853.69,349.14 853.05,347.66L853.05,347.66Z" style="fill:rgb(253,253,252);fill-rule:nonzero;"/>
            <path id="path102" d="M96.98,348.79C103,348.33 109.04,348.52 115.08,348.5C115,362.53 115.03,376.56 115.19,390.59C117.63,390.55 120.08,390.51 122.52,390.48C123.08,385.01 123.12,379.52 123.42,374.04C124.8,374.78 126.18,375.52 127.56,376.27C127.48,382.68 127.64,389.09 127.34,395.5C118.18,395.4 109,395.84 99.86,395.16C98.88,393.64 97.94,392.1 97.04,390.53C101.53,390.48 106.03,390.46 110.52,390.44C111.09,377.99 110.87,365.53 111,353.07C106.19,352.67 99.86,353.72 96.98,348.79L96.98,348.79Z" style="fill:rgb(253,253,252);fill-rule:nonzero;"/>
            <path id="path104" d="M138.95,348.78C148.59,348.21 158.25,348.62 167.89,348.76C169.93,357.07 169.83,365.91 167.38,374.13C159.73,373.95 152.08,374.04 144.43,373.99C144.49,379.47 144.64,384.94 144.67,390.42C152.94,390.68 161.23,390.28 169.5,390.68C169.49,392.21 169.47,393.75 169.44,395.29C159.64,395.71 149.83,395.39 140.03,395.56C139.74,386.94 140.14,378.31 140.59,369.7C148.67,369.68 156.79,370.25 164.83,369.17C165.02,363.72 165.28,358.28 165.35,352.83C157.72,352.38 150.05,352.96 142.44,352.33C141,351.46 140.08,349.97 138.95,348.78L138.95,348.78Z" style="fill:rgb(253,253,252);fill-rule:nonzero;"/>
            <path id="path106" d="M180.43,349.34C190.59,347.9 200.87,348.52 211.08,349.1C211.59,356.72 210.74,364.33 210.43,371.92C211.54,379.65 212.21,387.58 210.26,395.25C202.86,395.56 195.45,395.67 188.05,395.49C186.52,395.29 184.77,395.53 183.44,394.67C182.32,393.46 181.64,391.93 180.85,390.5C189.42,390.44 197.99,390.48 206.56,390.44C206.84,385.03 206.83,379.61 206.77,374.19C200.13,373.35 191.22,376.71 186.78,369.95C192.64,369.64 198.51,369.61 204.38,369.54C208.59,364.87 206.64,358.31 207.21,352.63C198.32,351.73 188.15,355.36 180.43,349.34L180.43,349.34Z" style="fill:rgb(253,253,252);fill-rule:nonzero;"/>
            <path id="path108" d="M791.33,352.36C792.92,353.27 796.02,353.43 796.09,355.86C796.38,360.97 795.96,366.21 794.6,371.15C794.31,371.95 794.02,372.74 793.73,373.54C793.34,373.49 792.56,373.38 792.17,373.33C792.08,366.33 791.35,359.36 791.33,352.36Z" style="fill:rgb(253,253,252);fill-rule:nonzero;"/>
            <path id="path110" d="M417.47,363.89C418.87,362.76 420.3,361.66 421.74,360.57C423.39,369.07 415.04,373.96 409.41,378.47C409.45,384.39 409.24,390.32 408.59,396.22C404.63,394.69 404.22,389.65 404.3,386C404.59,382.33 404.14,378.55 404.76,374.94C408.8,371.05 413.17,367.5 417.47,363.89L417.47,363.89Z" style="fill:rgb(253,253,252);fill-rule:nonzero;"/>
            <path id="path112" d="M115.07,420.64C117.78,415.25 126.22,414.51 129.8,419.3C131.75,421.8 131.14,425.28 129.82,427.93C127.5,432.54 123.29,435.74 120.07,439.68C124.41,440.29 130.11,438.49 133.22,442.45C127.46,442.84 121.68,442.88 115.91,442.78C115.97,441.6 116.03,440.43 116.09,439.26C120.35,434.61 126.11,430.5 127.42,423.95C127.98,421.78 126.24,419.4 123.99,419.36C120.97,419.31 118.04,420.22 115.07,420.64Z" style="fill:rgb(253,253,252);fill-rule:nonzero;"/>
            <path id="path114" d="M134.63,420.05C138.41,415.81 145.98,414.24 149.99,418.98C152.63,421.95 149.62,425.57 148.08,428.26C149.71,430.95 152.51,433.78 151.35,437.2C149.52,444.76 137.56,445.89 134.22,438.91C138.01,439.13 141.94,441.19 145.66,439.7C148.83,437.7 147.25,433.42 146.95,430.4C144.67,430.23 142.4,430.04 140.13,429.84C142.76,427.38 147.48,426.02 147.6,421.8C144.91,417.21 138.82,420.44 134.63,420.05L134.63,420.05Z" style="fill:rgb(253,253,252);fill-rule:nonzero;"/>
            <path id="path116" d="M153.46,433.54C157.01,426.38 162.3,420.07 169.04,415.72C169.29,420.58 169.25,425.46 169.39,430.33C170.49,430.94 171.6,431.54 172.71,432.15C168.76,434.26 169.2,439.01 168.95,442.8C168.23,442.79 166.8,442.77 166.08,442.76C166.07,439.85 166.05,436.93 166.03,434.03C161.84,433.91 157.65,433.79 153.46,433.54M157.54,430.98C160.43,430.99 163.32,430.99 166.21,430.98C166.12,427.74 166.03,424.49 165.96,421.24C163.05,424.4 160.21,427.62 157.54,430.98Z" style="fill:rgb(253,253,252);fill-rule:nonzero;"/>
            <path id="path118" d="M97.71,421.43C100.67,419.83 103.59,418.19 106.5,416.52C106.49,424.02 106.36,431.52 106.59,439.02C108.65,439.62 110.45,440.77 111.84,442.41C107.2,443.2 102.37,443.33 97.85,441.87C99.75,440.9 101.96,439.88 102.57,437.62C103.84,433.02 102.69,428.21 102.41,423.55C100.82,422.88 99.25,422.18 97.71,421.43L97.71,421.43Z" style="fill:rgb(253,253,252);fill-rule:nonzero;"/>
            <path id="path120" d="M474.88,429.81C477.51,432.47 479.33,435.9 482.35,438.16C482.48,436.07 482.58,433.98 482.69,431.89C483.17,431.69 484.13,431.29 484.61,431.1C484.52,436.08 484.7,441.08 484.19,446.05C481.23,443.06 479.49,439.19 477.3,435.66C476.86,438.53 476.37,441.39 475.58,444.19C475.63,439.38 475.16,434.6 474.88,429.81Z" style="fill:rgb(253,253,252);fill-rule:nonzero;"/>
            <path id="path122" d="M485.81,431.05C490.7,430.33 495.95,429.83 500.71,431.45C501.08,433.1 501.45,434.74 501.82,436.4C503.64,436.41 505.46,436.43 507.29,436.46C507.66,434.28 508.03,432.1 508.48,429.94C510.21,434.88 509.68,440.2 509.77,445.35C510.39,445.29 511.61,445.18 512.22,445.12C514.06,440.02 514.91,434.61 516.72,429.49C520.01,430.68 522.53,433.11 524.77,435.72C526.09,433.98 527.44,432.28 528.79,430.56C533.1,429.72 537.46,430.52 541.7,431.37C538.78,432.13 535.84,432.85 532.98,433.82C534.86,436.64 538.39,436.5 541.34,437.27C538.55,437.87 535.78,438.46 533.04,439.21C533.34,443.19 537.67,443.72 540.85,443.81C540.95,444.15 541.14,444.85 541.24,445.2C538.16,444.89 535.07,444.97 531.99,445.12C531.84,441.34 532.57,437.34 531.1,433.76C529.79,432.59 528.02,434.28 527.31,435.39C525.57,438.71 525.72,442.62 524.56,446.13C523.37,441.15 522.94,435.45 518.79,431.86C515.4,437.04 514.68,443.3 512.6,449.01C510.99,447.34 509.27,445.75 507.92,443.87C507.49,442.01 507.7,440.08 507.66,438.2C505.55,438.28 503.46,438.37 501.37,438.46C501.12,441.08 500.89,443.71 500.53,446.32C498.68,441.74 498.54,436.56 499.53,431.76C497.66,431.94 495.21,431.18 494.03,433.12C491.83,436.68 493.01,441.12 492.87,445.07C492.36,445.07 491.32,445.08 490.81,445.08C490.76,441.54 491.41,437.88 490.38,434.44C489.8,432.35 487.6,431.7 485.81,431.05L485.81,431.05Z" style="fill:rgb(253,253,252);fill-rule:nonzero;"/>
            <path id="path124" d="M547.58,429.67C549.21,431.65 549.49,434.31 550.37,436.64C548.35,436.22 546.3,435.91 544.25,436.27C545.61,434.2 546.59,431.93 547.58,429.67Z" style="fill:rgb(253,253,252);fill-rule:nonzero;"/>
            <path id="path126" d="M445.29,432.22C445.88,430.46 448.88,431.49 448.34,433.24C447.41,434.62 445.27,433.81 445.29,432.22Z" style="fill:rgb(253,253,252);fill-rule:nonzero;"/>
            <path id="path128" d="M554.67,444.61C555.07,439.84 554.84,435.03 555.43,430.27C558.14,430.52 560.85,430.74 563.57,430.96C563.62,433.98 563.16,436.97 562.41,439.9C563.51,441.76 564.6,443.63 565.6,445.55C562.66,443.46 559.96,441.08 557.15,438.84C557.17,440.77 557.2,442.7 557.24,444.64C556.6,444.63 555.31,444.62 554.67,444.61M557.87,433.74C557.96,434.6 558.13,436.31 558.22,437.17C559.62,436.47 561.32,435.89 561.29,434.01C560.44,433.94 558.72,433.81 557.87,433.74L557.87,433.74Z" style="fill:rgb(253,253,252);fill-rule:nonzero;"/>
            <path id="path130" d="M541.75,442.92C543.13,440.66 543.92,437.97 546.15,436.34C546.13,437.28 546.09,439.17 546.06,440.11C547.67,439.14 549.27,438.15 550.87,437.16C552.1,439.65 553.34,442.13 554.46,444.68C551.5,444.82 549.84,442.12 547.84,440.43C546.1,441.66 544.43,443.01 542.93,444.52C542.53,443.99 542.13,443.45 541.75,442.92L541.75,442.92Z" style="fill:rgb(253,253,252);fill-rule:nonzero;"/>
            <path id="path132" d="M331.46,453.87C333.6,457.46 334.97,461.41 336.39,465.32C338.4,461.53 339.99,457.48 342.75,454.14C341.4,459.53 339.5,464.77 337.4,469.91C336.09,469.99 335.94,468.44 335.38,467.61C333.24,463.31 331.91,458.65 331.46,453.87L331.46,453.87Z" style="fill:rgb(253,253,252);fill-rule:nonzero;"/>
            <path id="path134" d="M373.45,454.55C377.22,455.03 381.91,455.27 384.07,458.94C385.13,461.72 384.98,465.52 382.46,467.52C379.92,469.53 376.56,469.93 373.43,470.07C373.4,464.89 373.33,459.72 373.45,454.55M375.57,455.78C375.46,460.05 375.45,464.33 375.53,468.61C378.75,468.51 382.15,466.52 382.3,462.99C382.84,459.02 379.28,456 375.57,455.78L375.57,455.78Z" style="fill:rgb(253,253,252);fill-rule:nonzero;"/>
            <path id="path136" d="M429.87,453.99C434.09,454 438.33,453.88 442.56,454.03C442.42,465.75 443.04,477.45 443.05,489.17C445.03,488.92 447.42,488.66 448.5,486.7C450.21,483.26 449.25,479.27 449.33,475.59C450.49,475.53 451.65,475.48 452.82,475.44C452.78,480.53 452.65,485.63 452.66,490.72C444.6,490.13 435.32,494.03 428.36,488.29C431.96,488.01 435.59,487.98 439.21,487.99C439.78,477.94 439.82,467.86 439.98,457.79C436.69,457.63 433.41,457.53 430.12,457.52C430.03,456.34 429.94,455.16 429.87,453.99L429.87,453.99Z" style="fill:rgb(253,253,252);fill-rule:nonzero;"/>
            <path id="path138" d="M508.4,467.43C511.35,462.51 513.61,456.71 518.74,453.6C513.61,467.56 505.7,480.42 496.32,491.91C497.68,482.64 504.08,475.42 508.4,467.43Z" style="fill:rgb(253,253,252);fill-rule:nonzero;"/>
            <path id="path140" d="M347.28,455.08C348.27,455.88 351.24,455.7 350.68,457.39C349.19,458.31 347.57,458.99 346.01,459.76C346.81,461.16 347.62,462.57 348.42,463.99C349.56,462.52 350.73,461.08 351.95,459.68C352.28,462.91 353.22,466.02 355.12,468.69C352.57,467.43 350.02,466.16 347.42,465.01C345.69,466.69 343.92,468.33 342.11,469.93C343.63,464.91 345.24,459.91 347.28,455.08Z" style="fill:rgb(253,253,252);fill-rule:nonzero;"/>
            <path id="path142" d="M355.28,468.89C355.6,464 355.1,459 356.4,454.22C357.93,458.46 357.57,463 357.58,467.42C360.9,467.75 364.23,467.97 367.57,468.07C367.2,463.67 366.57,459.31 365.83,454.97C366.8,454.97 368.75,454.96 369.73,454.96C369.11,459.87 369.14,464.84 369.79,469.75C364.94,469.66 360.1,469.42 355.28,468.89L355.28,468.89Z" style="fill:rgb(253,253,252);fill-rule:nonzero;"/>
            <path id="path144" d="M461.61,455.16C469.68,454.53 477.79,454.84 485.86,455.38C486.19,461.78 486.02,468.24 485,474.57C478.78,474.55 472.57,474.81 466.35,474.78C466.18,479.34 466.08,483.9 466.02,488.46C472.73,489.02 480.14,486.7 486.27,490.38C478.53,490.86 470.78,491.01 463.03,491C462.96,484.48 462.38,477.92 463.36,471.44C469.63,470.61 475.95,471.12 482.25,471.38C482.55,466.75 482.51,462.11 482.6,457.48C475.61,457.07 467.69,459.89 461.61,455.16L461.61,455.16Z" style="fill:rgb(253,253,252);fill-rule:nonzero;"/>
            <path id="path146" d="M529.52,470.44C529.49,465.18 529.45,459.91 529.54,454.65C536.85,454.76 544.16,454.87 551.48,454.7C551.76,464.58 552.59,474.5 551.21,484.35C549.77,479.87 549.14,475.19 548.39,470.56C542.1,470.55 535.81,470.58 529.52,470.44M532.28,457.74C532.43,460.82 532.53,463.9 532.6,466.99C537.9,466.97 543.2,467.05 548.5,466.93C548.68,463.84 548.87,460.75 549.02,457.66C543.44,457.62 537.86,457.71 532.28,457.74Z" style="fill:rgb(253,253,252);fill-rule:nonzero;"/>
            <path id="path148" d="M562.84,454.62C570.1,454.62 577.36,454.82 584.62,454.57C585.14,463.28 585.18,472.03 584.75,480.74C583.75,477.76 582.91,474.74 582.05,471.73L581.89,471.16C575.56,470.44 569.19,470.57 562.83,470.41C562.8,465.15 562.72,459.88 562.84,454.62M565.6,457.78C565.73,460.83 565.89,463.89 566.06,466.95C571.31,466.95 576.56,466.99 581.81,466.94C581.93,463.88 582.09,460.83 582.33,457.78C576.75,457.76 571.18,457.76 565.6,457.78Z" style="fill:rgb(253,253,252);fill-rule:nonzero;"/>
            <path id="path150" d="M330.95,473.74C334.38,473.46 337.82,473.19 341.25,472.81C336.25,476.53 338.48,483.23 336.59,488.36C336.03,483.92 335.94,479.46 335.74,475.01C334.13,474.57 332.54,474.17 330.95,473.74L330.95,473.74Z" style="fill:rgb(253,253,252);fill-rule:nonzero;"/>
            <path id="path152" d="M380.42,473.37C380.96,473.37 382.04,473.36 382.57,473.36C382.31,477.77 383.37,482.72 380.77,486.63C378.07,487.44 375.2,487.12 372.64,486.06C371.79,481.81 371.75,477.47 371.57,473.17C372.17,473.29 373.35,473.53 373.95,473.65C374.33,477.19 373.4,480.93 374.6,484.35C375.47,486.41 377.82,485.84 379.57,485.63C380.16,481.56 380.38,477.47 380.42,473.37Z" style="fill:rgb(253,253,252);fill-rule:nonzero;"/>
            <path id="path154" d="M100.29,541.62C106.08,536.33 114.62,533.71 122.07,536.99C125.94,537.86 125.72,542.55 126.22,545.61C122.34,543.56 118.63,540.57 114.04,540.54C110.28,540.62 107.49,543.51 104.76,545.73C103.27,544.36 101.78,542.98 100.29,541.62L100.29,541.62Z" style="fill:rgb(253,253,252);fill-rule:nonzero;"/>
            <path id="path156" d="M140.14,536.22C142.25,536.32 144.36,536.42 146.48,536.51C148.06,541.04 149.63,545.56 151.32,550.05C149.5,550.54 147.68,551.03 145.87,551.53C145.15,548.86 144.4,546.2 143.59,543.56C142.88,545.13 142.16,546.71 141.55,548.34C140.34,548.54 139.13,548.74 137.93,548.95C137.73,547.61 137.56,546.29 137.41,544.96C137.99,541.95 139.16,539.11 140.14,536.22L140.14,536.22Z" style="fill:rgb(253,253,252);fill-rule:nonzero;"/>
            <path id="path158" d="M164.03,536.42C169.65,536.66 175.5,535.52 180.94,537.44C184.82,538.79 187.9,542.66 187.47,546.9C186.9,551.56 184.01,555.41 181.53,559.23C180.11,557.69 178.63,556.21 177.14,554.74C175.86,555.6 174.57,556.46 173.29,557.33C173.46,557.63 173.81,558.24 173.98,558.54C173.18,558.7 171.58,559.01 170.78,559.17C170.37,559.08 169.56,558.9 169.16,558.8C169.89,555.65 173.19,554.88 175.68,553.61C177.06,553.54 178.44,553.48 179.82,553.43C180.81,550.08 181.59,546.68 182.24,543.26C178.1,542.37 173.95,541.51 169.78,540.79C169.09,544.17 168.9,547.83 166.74,550.69C165.46,552.06 165.72,554.36 164.37,555.61C164.23,555.61 163.94,555.61 163.8,555.6C165.47,549.46 163.59,542.79 164.03,536.42L164.03,536.42Z" style="fill:rgb(253,253,252);fill-rule:nonzero;"/>
            <path id="path160" d="M197.14,536.42C205.16,536.51 214.53,535.1 220.99,541C226.74,545.81 227.12,554.06 225.75,560.89C225.54,561.54 225.12,562.85 224.91,563.5C223.87,562.11 222.84,560.72 221.88,559.28C220.64,554.4 220.86,548.68 217.13,544.85C213.29,541.45 207.79,541.68 203.03,540.88C202.86,548.77 202.65,556.69 203.36,564.56C201.46,562.89 199.55,561.24 197.6,559.66C197.28,551.92 197.6,544.16 197.14,536.42Z" style="fill:rgb(253,253,252);fill-rule:nonzero;"/>
            <path id="path162" d="M233.48,536.3C235.29,536.33 237.1,536.36 238.91,536.39C239.13,541.12 238.96,545.85 239.09,550.59C244.25,550.54 249.42,550.69 254.58,550.68C254.58,545.93 254.6,541.19 254.56,536.44C256.52,536.37 258.49,536.32 260.47,536.27C260.72,548.22 260.26,560.18 260.9,572.12C258.93,572.26 256.96,572.42 255,572.61C254.73,566.95 255.06,561.29 254.73,555.64C249.52,555.69 244.31,555.73 239.11,555.6C238.77,561.39 239.15,567.19 238.88,572.97C238.55,573.2 237.87,573.65 237.54,573.88C237.06,570.15 237,566.39 236.54,562.67C235.82,566.53 236.06,570.48 235.65,574.38C231.92,562.02 234.09,548.98 233.48,536.3L233.48,536.3Z" style="fill:rgb(253,253,252);fill-rule:nonzero;"/>
            <path id="path164" d="M271.18,541.21C277.46,532.95 291.97,533.87 297.18,542.84C301.55,550.11 300.13,559.05 298.16,566.85C296.74,565.34 295.33,563.82 293.92,562.32C293.97,556.35 295.16,549.66 291.56,544.43C287.98,539.15 279.13,539.48 275.72,544.78C272.76,549.31 273.31,554.99 273.12,560.15C271.57,561.68 270.02,563.22 268.46,564.77C267.02,556.98 266.14,547.95 271.18,541.21L271.18,541.21Z" style="fill:rgb(253,253,252);fill-rule:nonzero;"/>
            <path id="path166" d="M306.86,535.65C308.77,536.13 310.68,536.66 312.58,537.22C313.05,547.5 312.63,557.79 312.85,568.07C312.32,567.87 311.26,567.48 310.73,567.28C307.25,557.93 308.09,547.76 307,537.99C306.97,537.41 306.9,536.23 306.86,535.65L306.86,535.65Z" style="fill:rgb(253,253,252);fill-rule:nonzero;"/>
            <path id="path168" d="M333.98,536.27C341.21,536.46 349.13,535.29 355.64,539.21C366.17,546.05 366.24,563.89 355.67,570.73C349.14,574.6 341.22,573.38 334,573.28C334.02,560.94 333.9,548.61 333.98,536.27M339.85,541.3C339.76,550.39 339.99,559.49 340.01,568.58C343.92,568.18 348.09,568.41 351.73,566.71C360.11,561.74 359.77,547.37 351.08,542.9C347.54,541.42 343.6,541.62 339.85,541.3L339.85,541.3Z" style="fill:rgb(253,253,252);fill-rule:nonzero;"/>
            <path id="path170" d="M370.08,536.38C377.88,536.34 385.69,536.3 393.49,536.32C393.65,538.06 393.81,539.81 393.96,541.56C387.99,541.44 382.02,541.51 376.05,541.51C376,544.52 375.99,547.52 376.07,550.54C381.52,550.51 386.96,550.72 392.42,550.73C392.48,552.39 392.54,554.05 392.61,555.72C387.11,555.77 381.61,555.67 376.12,555.63C376.04,559.82 376.01,564.02 375.88,568.22C381.74,568.31 387.61,568.08 393.47,568.46C393.49,570.14 393.53,571.83 393.57,573.52C385.87,573.5 378.17,573.49 370.48,573.51C370.31,561.13 370.68,548.75 370.08,536.38L370.08,536.38Z" style="fill:rgb(253,253,252);fill-rule:nonzero;"/>
            <path id="path172" d="M400.42,536.26C405.61,536.43 410.9,535.76 416.02,536.87C420.27,537.81 424.11,541.47 424.14,546.02C424.45,551.11 420.81,555.19 417.23,558.3C421.65,563.4 426,568.57 429.95,574.06C427.4,574.07 424.71,573.95 422.6,572.36C416.59,568.21 414.07,560.1 406.8,557.56C406.4,562.9 406.37,568.27 406.22,573.63C404.33,573.52 402.44,573.4 400.56,573.3C400.29,560.95 400.49,548.6 400.42,536.26M406.48,541.13C406.51,545.6 406.48,550.07 406.53,554.54C409.57,554.04 412.77,553.93 415.57,552.51C419.2,550.59 419.34,544.31 415.51,542.55C412.71,541.18 409.5,541.37 406.48,541.13L406.48,541.13Z" style="fill:rgb(253,253,252);fill-rule:nonzero;"/>
        </g>
        <g id="_-c6c6c6ff">
            <path id="path175" d="M256.37,187.07C258.64,197.17 257.45,207.61 257.54,217.86C244.36,218.1 231.17,218.5 217.99,218.1C217.97,216.35 217.96,214.6 217.94,212.86C224.32,206.6 230.98,200.61 237.21,194.19L232.62,190.14C240.47,189.26 248.39,189.63 256.24,188.87C256.27,188.42 256.34,187.52 256.37,187.07L256.37,187.07Z" style="fill:rgb(198,198,198);fill-rule:nonzero;"/>
            <path id="path177" d="M210.07,219.55C225.82,219.61 241.57,219.9 257.32,219.95C257.46,228.77 257.45,237.6 257.42,246.42C242.36,246.52 227.31,246.68 212.26,246.88C209.7,242.97 206.49,239.4 204.71,235.04C204.49,229.37 208.04,224.6 210.07,219.55L210.07,219.55Z" style="fill:rgb(198,198,198);fill-rule:nonzero;"/>
            <path id="path179" d="M179.09,251.11C186.25,243.11 194.95,236.75 202.81,229.51C203.05,232.01 203.08,234.53 203.01,237.04C213.24,247.7 210.06,267.02 197.63,274.57C186,281.24 169.65,279.55 160.41,269.57C167.64,264.53 172.95,257.33 179.09,251.11L179.09,251.11Z" style="fill:rgb(198,198,198);fill-rule:nonzero;"/>
            <path id="path181" d="M209.99,265.99C211.92,260.76 212.18,255.13 212.86,249.66C227.72,250.67 242.61,250.46 257.49,250.48C257.39,258.66 257.43,266.83 257.52,275.01C246.01,275.52 234.48,275.26 222.96,275.35C215.18,275.39 207.72,277.91 200.04,278.81C203.63,274.78 208.03,271.18 209.99,265.99L209.99,265.99Z" style="fill:rgb(198,198,198);fill-rule:nonzero;"/>
            <path id="path183" d="M186.52,281.89C195.72,282.12 205.04,282.59 214.08,280.51C228.45,278.74 242.96,280.18 257.39,279.71C254.72,288.23 247.39,296.12 237.99,296.35C221.05,296.49 204.08,296.91 187.15,296.08C186.65,291.36 186.53,286.62 186.52,281.89L186.52,281.89Z" style="fill:rgb(198,198,198);fill-rule:nonzero;"/>
            <path id="path185" d="M136.12,292.04C139.72,285.38 148.21,285.43 153.63,280.94C161.89,281.7 170.2,281.53 178.49,281.86C178.44,286.7 178.29,291.55 178.3,296.4C167.1,296.28 155.78,297.86 144.68,295.86C141.77,294.71 138.95,293.34 136.12,292.04Z" style="fill:rgb(198,198,198);fill-rule:nonzero;"/>
            <path id="path187" d="M391.07,347.35C401.33,347.55 411.58,347.63 421.84,347.43C422.03,351.81 421.91,356.19 421.74,360.57C420.3,361.66 418.87,362.76 417.47,363.89C417.04,360.29 416.61,356.7 416.22,353.11C408.9,353.74 399.64,350.22 394.23,356.95C392.4,354.05 391.58,350.7 391.07,347.35L391.07,347.35Z" style="fill:rgb(198,198,198);fill-rule:nonzero;"/>
            <path id="path189" d="M776.52,348.96C776.98,348.8 777.89,348.49 778.35,348.33C778.26,357.55 778.02,366.78 777.72,376C782.37,375.68 787.74,376.67 791.51,373.25L792.17,373.33C792.56,373.38 793.34,373.49 793.73,373.54C794.02,372.74 794.31,371.95 794.6,371.15C794.97,373.71 799.14,376.31 796.73,378.66C796.05,379.43 795.36,380.2 794.66,380.96C794.81,386.15 795,391.35 794.66,396.54C789.58,391.87 794.84,383.87 790.21,378.9C784.59,378.4 778.95,378.66 773.33,378.82C773.35,375.85 773.38,372.89 773.54,369.93C778.12,363.92 777.08,355.98 776.52,348.96L776.52,348.96Z" style="fill:rgb(198,198,198);fill-rule:nonzero;"/>
            <path id="path191" d="M757.44,351.91L758.17,351.71C757.83,352.68 757.14,353.11 756.1,352.98C750.56,353.09 745.02,352.89 739.49,353C739.41,358.17 739.37,363.34 739.34,368.52C745.32,368.79 751.3,369.16 757.25,369.9C757.26,371.17 757.29,372.45 757.33,373.74C756.89,374.24 756.02,375.24 755.58,375.74C754.4,375.54 753.23,375.34 752.06,375.16C746.18,374.07 740.18,374.48 734.24,374.18C734.32,371.72 734.33,369.27 734.32,366.81C734.49,368.39 734.75,369.95 735.04,371.53C739.49,366.19 737.43,358.79 738.15,352.44C744.56,352.08 751.14,353.5 757.44,351.91Z" style="fill:rgb(198,198,198);fill-rule:nonzero;"/>
            <path id="path193" d="M836.75,358.21C837.53,360.71 838.05,363.28 838.33,365.89C839.26,365.22 840.2,364.56 841.15,363.9C840.98,365.82 840.8,367.74 840.6,369.66L839.79,370C837.56,370.93 835.36,371.92 833.13,372.82C828.76,374.52 823.93,374.02 819.36,373.95C818.88,372.36 818.42,370.78 817.97,369.2C823.47,369.43 828.98,369.72 834.49,369.83C835.43,365.99 835.78,362.04 836.75,358.21L836.75,358.21Z" style="fill:rgb(198,198,198);fill-rule:nonzero;"/>
            <path id="path195" d="M458.95,434.38C461.28,432.48 463.55,428.98 467.04,430.12C474.11,431.72 474.39,443.24 467.82,445.77C464.08,447.36 461.31,443.54 458.47,441.78C457.38,443.32 456.29,444.86 455.18,446.37C454.88,443.54 454.65,440.71 454.36,437.88C452.96,439.09 451.7,440.45 450.55,441.91C449.65,440.42 448.67,439 447.5,437.73C447.17,440.7 446.96,443.68 446.61,446.64C443.15,442.64 443.61,436.88 445.29,432.22C445.27,433.81 447.41,434.62 448.34,433.24C449.34,434.11 449.96,436.06 451.59,435.62C452.99,433.87 454.11,431.76 456.4,431.05C457.24,432.16 458.09,433.27 458.95,434.38M462.21,433.34C462.33,437.03 461.78,441.31 464.89,444.03C469.69,442.77 469.05,437.38 469.26,433.54C466.91,433.34 464.56,433.29 462.21,433.34Z" style="fill:rgb(198,198,198);fill-rule:nonzero;"/>
            <path id="path197" d="M388.93,465.86C394.61,468.01 400.29,470.15 405.87,472.54C405.82,472.76 405.73,473.2 405.69,473.42C400.25,476.06 394.56,478.19 388.91,480.34C388.89,475.51 388.9,470.69 388.93,465.86L388.93,465.86Z" style="fill:rgb(198,198,198);fill-rule:nonzero;"/>
            <path id="path199" d="M349.52,478.84C352.18,477.12 353.51,474.12 355.59,471.83C355.79,476.98 355.9,482.13 355.91,487.28C355.25,487.24 353.94,487.16 353.29,487.12C353.2,483.9 352.03,480.91 349.52,478.84Z" style="fill:rgb(198,198,198);fill-rule:nonzero;"/>
            <path id="path201" d="M344.13,487.32C344.14,482.12 343.49,476.64 345.85,471.8C347.45,474.91 349.66,478.04 348.94,481.74L347.87,481.53C347.54,483.4 347.23,485.28 346.93,487.17C346.23,487.21 344.83,487.28 344.13,487.32Z" style="fill:rgb(198,198,198);fill-rule:nonzero;"/>
            <path id="path203" d="M358.29,472.78C361.13,472.72 363.98,472.72 366.82,472.83C367.55,474.24 368.3,475.64 369.05,477.05C368.22,478.41 367.38,479.77 366.54,481.14C367.67,483.53 368.82,485.93 369.9,488.36C367.25,486.52 364.76,484.48 362.28,482.42C361.29,484.44 360.23,486.42 359.03,488.33C358.37,483.17 358.37,477.96 358.29,472.78M361.17,475.19C361.13,476.47 361.09,477.76 361.07,479.05C362.36,479.03 363.67,479.01 364.97,478.99C364.96,477.69 364.95,476.4 364.94,475.11C363.68,475.13 362.42,475.15 361.17,475.19Z" style="fill:rgb(198,198,198);fill-rule:nonzero;"/>
            <path id="path205" d="M306.32,573.5C306.35,561.67 305.93,549.79 307,537.99C308.09,547.76 307.25,557.93 310.73,567.28C311.26,567.48 312.32,567.87 312.85,568.07C318.31,568.12 323.78,568.02 329.25,568.07C329.21,570.02 329.18,571.97 329.16,573.93C321.54,573.91 313.92,573.83 306.32,573.5L306.32,573.5Z" style="fill:rgb(198,198,198);fill-rule:nonzero;"/>
            <path id="path207" d="M166.74,550.69C168.9,547.83 169.09,544.17 169.78,540.79C169.89,545.06 169.99,549.32 170.06,553.59C171.93,553.6 173.81,553.62 175.68,553.61C173.19,554.88 169.89,555.65 169.16,558.8C169.56,558.9 170.37,559.08 170.78,559.17C171.01,559.31 171.48,559.6 171.71,559.74L170.12,560.75C170.14,565.14 170.19,569.53 169.65,573.9C167.76,574.02 165.81,574.05 164.09,573.14C163.89,567.38 163.38,561.61 164.02,555.86L164.37,555.61C165.72,554.36 165.46,552.06 166.74,550.69L166.74,550.69Z" style="fill:rgb(198,198,198);fill-rule:nonzero;"/>
            <path id="path209" d="M99.37,565.68C95.89,558.12 96.94,549.03 100.29,541.62C101.78,542.98 103.27,544.36 104.76,545.73C104.53,551.64 102.38,558.05 105.45,563.59C107.29,567.39 111.74,569.65 115.89,568.79C119.46,567.97 122.33,565.25 126.05,564.86C126.17,566.25 126.28,567.66 126.39,569.06C127.48,568.95 128.57,568.85 129.66,568.76C131.29,560.55 133.89,552.54 137.41,544.96C137.56,546.29 137.73,547.61 137.93,548.95C139.13,548.74 140.34,548.54 141.55,548.34C140.55,551.61 139.8,554.94 138.95,558.25C141.86,558.28 144.76,558.31 147.66,558.34C147.06,556.07 146.47,553.8 145.87,551.53C147.68,551.03 149.5,550.54 151.32,550.05C154.35,558.07 157.01,566.24 159.47,574.45C157.42,573.91 155,574.13 153.21,572.92C151.6,570.24 150.74,567.21 149.63,564.31C145.45,564.12 141.28,563.87 137.1,563.93C135.79,567.42 134.35,570.85 132.97,574.32C131.41,574.09 129.84,573.88 128.28,573.67C127.35,572.49 126.43,571.3 125.51,570.12C118.39,578.29 103.63,575.35 99.37,565.68L99.37,565.68Z" style="fill:rgb(198,198,198);fill-rule:nonzero;"/>
            <path id="path211" d="M173.29,557.33C174.57,556.46 175.86,555.6 177.14,554.74C178.63,556.21 180.11,557.69 181.53,559.23C185.93,563.83 190.17,568.6 193.69,573.92C191.18,573.92 188.67,573.91 186.16,573.89C182.08,568.79 177.46,564.09 173.98,558.54C173.81,558.24 173.46,557.63 173.29,557.33L173.29,557.33Z" style="fill:rgb(198,198,198);fill-rule:nonzero;"/>
            <path id="path213" d="M197.6,559.66C199.55,561.24 201.46,562.89 203.36,564.56C203.56,566.11 203.84,567.64 204.12,569.18C211.06,568.24 217.55,564.84 221.88,559.28C222.84,560.72 223.87,562.11 224.91,563.5C225.12,562.85 225.54,561.54 225.75,560.89C226.19,565.72 222.19,569.3 218.27,571.29C211.69,574.57 204.12,574.08 197,573.78C197.05,569.07 197.39,564.36 197.6,559.66L197.6,559.66Z" style="fill:rgb(198,198,198);fill-rule:nonzero;"/>
            <path id="path215" d="M268.46,564.77C270.02,563.22 271.57,561.68 273.12,560.15C275.65,563.68 277.99,568.84 283.03,568.9C287.71,569.24 290.88,565.23 293.92,562.32C295.33,563.82 296.74,565.34 298.16,566.85L298.47,567.19C294.73,570.72 290.64,574.87 285.11,574.87C277.99,575.65 271.8,570.74 268.19,565.04L268.46,564.77L268.46,564.77Z" style="fill:rgb(198,198,198);fill-rule:nonzero;"/>
        </g>
        <g id="_-788ba6ff">
            <path id="path218" d="M517.99,347.62C528.09,347.2 538.22,346.86 548.32,347.64C548.45,363.75 549.22,379.91 547.71,395.98C544.93,395.99 542.15,395.82 539.39,395.45C540.52,391.2 540.76,386.62 542.93,382.73C543.83,384.3 544.86,385.79 545.9,387.28C547.78,374.58 546.87,361.7 546.43,348.93C536.93,349.08 527.39,349.16 517.99,347.62L517.99,347.62Z" style="fill:rgb(120,139,166);fill-rule:nonzero;"/>
            <path id="path220" d="M879.06,366.76C880.39,365.81 881.72,364.84 883.06,363.88C882.82,367.59 882.47,371.29 881.91,374.96C874.04,375.14 866.16,374.78 858.3,375.16C858.51,380.24 858.18,385.34 858.63,390.41C866.34,390.47 874.06,390.5 881.77,390.41C882.44,392.2 883.1,393.99 883.76,395.78C873.89,395.88 864.02,395.8 854.15,395.82C853.93,386.81 854.08,377.79 854.19,368.78C862.4,367.95 871.69,371.96 879.06,366.76Z" style="fill:rgb(120,139,166);fill-rule:nonzero;"/>
            <path id="path222" d="M833.13,372.82C835.36,371.92 837.56,370.93 839.79,370C842.33,378.39 841.91,387.4 839.99,395.86C830.95,395.84 821.91,395.8 812.87,395.85C812.48,393.9 812.17,391.93 811.91,389.96C819.88,390.37 827.92,391.23 835.85,389.9C837.02,384.12 837.03,377.63 833.13,372.82L833.13,372.82Z" style="fill:rgb(120,139,166);fill-rule:nonzero;"/>
            <path id="path224" d="M589.19,370.99C591.09,378.86 590.3,387.03 588.53,394.84C580.64,396.88 572.39,395.79 564.36,395.52C560.37,395.11 560.37,390.16 559.87,387.15C561.32,386.41 562.79,385.67 564.25,384.94C564.56,386.84 564.99,388.72 565.41,390.62C571.35,390.68 577.29,390.61 583.24,390.7C583.69,385.42 583.62,380.11 583.53,374.82C578.23,374.88 572.91,375.05 567.66,374.2C573.4,373.64 579.15,374.11 584.89,374.03C585.16,376.89 585.36,379.76 585.82,382.61C586.45,382.61 587.69,382.62 588.32,382.62C588.95,378.77 589,374.87 589.19,370.99Z" style="fill:rgb(120,139,166);fill-rule:nonzero;"/>
            <path id="path226" d="M755.58,375.74C756.02,375.24 756.89,374.24 757.33,373.74C757.91,381.07 757.43,388.5 756.12,395.74C748.83,395.49 741.29,396.98 734.21,394.69C730.62,393.59 727.77,390.84 726.31,387.42C734.38,389.04 742.65,392.27 750.97,390.12C753.38,385.58 751.73,380.09 752.06,375.16C753.23,375.34 754.4,375.54 755.58,375.74Z" style="fill:rgb(120,139,166);fill-rule:nonzero;"/>
            <path id="path228" d="M615.04,383.96C616.49,381.77 618.1,379.68 619.88,377.75C619.99,383.5 619.56,389.23 619.68,394.98C618.06,395.35 616.43,395.69 614.81,396.04C614.32,392.04 614.29,387.92 615.04,383.96L615.04,383.96Z" style="fill:rgb(120,139,166);fill-rule:nonzero;"/>
            <path id="path230" d="M668.48,378.26C669.08,378.16 670.26,377.96 670.86,377.87C671.44,377.78 672.6,377.6 673.18,377.51C673.51,383.61 673.67,389.75 673.11,395.84C664.42,395.69 655.72,396.17 647.05,395.59C645.09,395.69 644.13,393.56 643.74,391.98C643.14,388.36 643.88,384.71 644.35,381.13C645.86,380.43 647.36,379.72 648.89,379.02C648.79,382.84 648.8,386.67 648.89,390.49C655.58,390.64 662.26,390.31 668.93,389.96C668.72,386.06 668.57,382.16 668.48,378.26Z" style="fill:rgb(120,139,166);fill-rule:nonzero;"/>
            <path id="path232" d="M551.48,454.7C552,454.86 553.04,455.19 553.56,455.35C553.81,467.77 553.88,480.25 552.34,492.6C550.27,492.18 548.32,491.41 546.56,490.27C547.56,483.75 548.32,477.17 548.39,470.56C549.14,475.19 549.77,479.87 551.21,484.35C552.59,474.5 551.76,464.58 551.48,454.7L551.48,454.7Z" style="fill:rgb(120,139,166);fill-rule:nonzero;"/>
            <path id="path234" d="M584.62,454.57C585.12,454.69 586.11,454.93 586.61,455.05C586.95,467.53 586.83,480.09 585.36,492.51C583.54,492.02 581.75,491.51 579.96,490.96C580.66,484.55 581.08,478.1 582.05,471.73C582.91,474.74 583.75,477.76 584.75,480.74C585.18,472.03 585.14,463.28 584.62,454.57L584.62,454.57Z" style="fill:rgb(120,139,166);fill-rule:nonzero;"/>
        </g>
        <path id="path237" d="M557.87,433.74C558.72,433.81 560.44,433.94 561.29,434.01C561.32,435.89 559.62,436.47 558.22,437.17C558.13,436.31 557.96,434.6 557.87,433.74L557.87,433.74Z" style="fill:rgb(78,116,169);fill-rule:nonzero;"/>
    </g>
</svg>
